<svg xmlns="http://www.w3.org/2000/svg" width="164" height="118" fill="none" viewBox="0 0 164 118"><g filter="url(#filter0_d)"><path fill="#fff" d="M101.491 34.3364H12.3738C9.95823 34.3364 8 36.2947 8 38.7103V103.224C8 105.64 9.95823 107.598 12.3738 107.598H101.491C103.906 107.598 105.865 105.64 105.865 103.224V38.7103C105.865 36.2947 103.906 34.3364 101.491 34.3364Z"/><path fill="#3D3C40" d="M99.8515 38.7104H57.2066C56.3007 38.7104 55.5664 39.4449 55.5664 40.3507C55.5664 41.2566 56.3007 41.9908 57.2066 41.9908H99.8515C100.757 41.9908 101.492 41.2566 101.492 40.3507C101.492 39.4449 100.757 38.7104 99.8515 38.7104Z" opacity=".08"/><path fill="#3D3C40" d="M99.8515 46.3643H57.2066C56.3007 46.3643 55.5664 47.0986 55.5664 48.0044C55.5664 48.9103 56.3007 49.6446 57.2066 49.6446H99.8515C100.757 49.6446 101.492 48.9103 101.492 48.0044C101.492 47.0986 100.757 46.3643 99.8515 46.3643Z" opacity=".08"/><path fill="#3D3C40" d="M99.8515 54.0186H57.2066C56.3007 54.0186 55.5664 54.7529 55.5664 55.6587C55.5664 56.5646 56.3007 57.2989 57.2066 57.2989H99.8515C100.757 57.2989 101.492 56.5646 101.492 55.6587C101.492 54.7529 100.757 54.0186 99.8515 54.0186Z" opacity=".08"/><path fill="#3D3C40" d="M99.8515 66.5933H57.2066C56.3007 66.5933 55.5664 67.3276 55.5664 68.2334C55.5664 69.1393 56.3007 69.8736 57.2066 69.8736H99.8515C100.757 69.8736 101.492 69.1393 101.492 68.2334C101.492 67.3276 100.757 66.5933 99.8515 66.5933Z" opacity=".08"/><path fill="#3D3C40" d="M99.8515 74.2476H57.2066C56.3007 74.2476 55.5664 74.9819 55.5664 75.8877C55.5664 76.7936 56.3007 77.5279 57.2066 77.5279H99.8515C100.757 77.5279 101.492 76.7936 101.492 75.8877C101.492 74.9819 100.757 74.2476 99.8515 74.2476Z" opacity=".08"/><path fill="#3D3C40" d="M99.8515 81.9019H57.2066C56.3007 81.9019 55.5664 82.6362 55.5664 83.542C55.5664 84.4479 56.3007 85.1822 57.2066 85.1822H99.8515C100.757 85.1822 101.492 84.4479 101.492 83.542C101.492 82.6362 100.757 81.9019 99.8515 81.9019Z" opacity=".08"/><path fill="#579EFF" d="M86.7296 89.5562H70.3277C69.4218 89.5562 68.6875 90.2905 68.6875 91.1963C68.6875 92.1022 69.4218 92.8365 70.3277 92.8365H86.7296C87.6354 92.8365 88.3697 92.1022 88.3697 91.1963C88.3697 90.2905 87.6354 89.5562 86.7296 89.5562Z"/><path fill="#3D3C40" fill-opacity=".16" fill-rule="evenodd" d="M98.758 97.7572H58.3001C57.0923 97.7572 56.1131 98.7364 56.1131 99.9441C56.1131 101.152 57.0923 102.131 58.3001 102.131H98.758C99.9657 102.131 100.945 101.152 100.945 99.9441C100.945 98.7364 99.9657 97.7572 98.758 97.7572ZM58.3001 97.2104C56.7905 97.2104 55.5664 98.4346 55.5664 99.9441C55.5664 101.454 56.7905 102.678 58.3001 102.678H98.758C100.268 102.678 101.492 101.454 101.492 99.9441C101.492 98.4346 100.268 97.2104 98.758 97.2104H58.3001Z" clip-rule="evenodd"/><path fill="#145DBF" d="M8 38.7103C8 36.2946 9.95838 34.3364 12.3738 34.3364H51.1916V107.598H12.3738C9.95838 107.598 8 105.64 8 103.224V38.7103Z"/><path fill="#fff" d="M15.6554 40.3507C15.6554 39.4449 14.921 38.7104 14.0152 38.7104C13.1093 38.7104 12.375 39.4449 12.375 40.3507C12.375 41.2566 13.1093 41.9908 14.0152 41.9908C14.921 41.9908 15.6554 41.2566 15.6554 40.3507Z" opacity=".48"/><path fill="#fff" d="M39.709 38.7104H19.48C18.5742 38.7104 17.8398 39.4449 17.8398 40.3507C17.8398 41.2566 18.5742 41.9908 19.48 41.9908H39.709C40.6149 41.9908 41.3492 41.2566 41.3492 40.3507C41.3492 39.4449 40.6149 38.7104 39.709 38.7104Z" opacity=".48"/><path fill="#fff" d="M15.6554 48.0044C15.6554 47.0986 14.921 46.3643 14.0152 46.3643C13.1093 46.3643 12.375 47.0986 12.375 48.0044C12.375 48.9103 13.1093 49.6446 14.0152 49.6446C14.921 49.6446 15.6554 48.9103 15.6554 48.0044Z" opacity=".48"/><path fill="#fff" d="M39.709 46.3643H19.48C18.5742 46.3643 17.8398 47.0986 17.8398 48.0044C17.8398 48.9103 18.5742 49.6446 19.48 49.6446H39.709C40.6149 49.6446 41.3492 48.9103 41.3492 48.0044C41.3492 47.0986 40.6149 46.3643 39.709 46.3643Z" opacity=".48"/><path fill="#06D6A0" d="M15.6554 55.6587C15.6554 54.7529 14.921 54.0186 14.0152 54.0186C13.1093 54.0186 12.375 54.7529 12.375 55.6587C12.375 56.5646 13.1093 57.2989 14.0152 57.2989C14.921 57.2989 15.6554 56.5646 15.6554 55.6587Z"/><path fill="#fff" d="M39.709 54.0186H19.48C18.5742 54.0186 17.8398 54.7529 17.8398 55.6587C17.8398 56.5646 18.5742 57.2989 19.48 57.2989H39.709C40.6149 57.2989 41.3492 56.5646 41.3492 55.6587C41.3492 54.7529 40.6149 54.0186 39.709 54.0186Z"/><path fill="#fff" d="M46.8194 55.6587C46.8194 54.7529 46.0851 54.0186 45.1792 54.0186C44.2734 54.0186 43.5391 54.7529 43.5391 55.6587C43.5391 56.5646 44.2734 57.2989 45.1792 57.2989C46.0851 57.2989 46.8194 56.5646 46.8194 55.6587Z"/><path fill="#fff" d="M15.6554 63.313C15.6554 62.4072 14.921 61.6729 14.0152 61.6729C13.1093 61.6729 12.375 62.4072 12.375 63.313C12.375 64.2189 13.1093 64.9532 14.0152 64.9532C14.921 64.9532 15.6554 64.2189 15.6554 63.313Z" opacity=".48"/><path fill="#fff" d="M39.709 61.6729H19.48C18.5742 61.6729 17.8398 62.4072 17.8398 63.313C17.8398 64.2189 18.5742 64.9532 19.48 64.9532H39.709C40.6149 64.9532 41.3492 64.2189 41.3492 63.313C41.3492 62.4072 40.6149 61.6729 39.709 61.6729Z" opacity=".48"/><path fill="#fff" d="M15.6554 70.9674C15.6554 70.0616 14.921 69.3271 14.0152 69.3271C13.1093 69.3271 12.375 70.0616 12.375 70.9674C12.375 71.8733 13.1093 72.6075 14.0152 72.6075C14.921 72.6075 15.6554 71.8733 15.6554 70.9674Z" opacity=".48"/><path fill="#fff" d="M39.709 69.3271H19.48C18.5742 69.3271 17.8398 70.0616 17.8398 70.9674C17.8398 71.8733 18.5742 72.6075 19.48 72.6075H39.709C40.6149 72.6075 41.3492 71.8733 41.3492 70.9674C41.3492 70.0616 40.6149 69.3271 39.709 69.3271Z" opacity=".48"/><path fill="#FFBC42" d="M15.6554 78.6216C15.6554 77.7158 14.921 76.9814 14.0152 76.9814C13.1093 76.9814 12.375 77.7158 12.375 78.6216C12.375 79.5275 13.1093 80.2618 14.0152 80.2618C14.921 80.2618 15.6554 79.5275 15.6554 78.6216Z"/><path fill="#fff" d="M39.709 76.9814H19.48C18.5742 76.9814 17.8398 77.7158 17.8398 78.6216C17.8398 79.5275 18.5742 80.2618 19.48 80.2618H39.709C40.6149 80.2618 41.3492 79.5275 41.3492 78.6216C41.3492 77.7158 40.6149 76.9814 39.709 76.9814Z" opacity=".48"/><path fill="#fff" d="M15.6554 86.2754C15.6554 85.3696 14.921 84.6353 14.0152 84.6353C13.1093 84.6353 12.375 85.3696 12.375 86.2754C12.375 87.1813 13.1093 87.9156 14.0152 87.9156C14.921 87.9156 15.6554 87.1813 15.6554 86.2754Z" opacity=".48"/><path fill="#fff" d="M39.709 84.6353H19.48C18.5742 84.6353 17.8398 85.3696 17.8398 86.2754C17.8398 87.1813 18.5742 87.9156 19.48 87.9156H39.709C40.6149 87.9156 41.3492 87.1813 41.3492 86.2754C41.3492 85.3696 40.6149 84.6353 39.709 84.6353Z" opacity=".48"/><path fill="#fff" d="M15.6554 93.9297C15.6554 93.0239 14.921 92.2896 14.0152 92.2896C13.1093 92.2896 12.375 93.0239 12.375 93.9297C12.375 94.8356 13.1093 95.5699 14.0152 95.5699C14.921 95.5699 15.6554 94.8356 15.6554 93.9297Z" opacity=".48"/><path fill="#fff" d="M39.709 92.2896H19.48C18.5742 92.2896 17.8398 93.0239 17.8398 93.9297C17.8398 94.8356 18.5742 95.5699 19.48 95.5699H39.709C40.6149 95.5699 41.3492 94.8356 41.3492 93.9297C41.3492 93.0239 40.6149 92.2896 39.709 92.2896Z" opacity=".48"/><path fill="#F74343" d="M15.6554 101.584C15.6554 100.678 14.921 99.9438 14.0152 99.9438C13.1093 99.9438 12.375 100.678 12.375 101.584C12.375 102.49 13.1093 103.224 14.0152 103.224C14.921 103.224 15.6554 102.49 15.6554 101.584Z"/><path fill="#fff" d="M39.709 99.9438H19.48C18.5742 99.9438 17.8398 100.678 17.8398 101.584C17.8398 102.49 18.5742 103.224 19.48 103.224H39.709C40.6149 103.224 41.3492 102.49 41.3492 101.584C41.3492 100.678 40.6149 99.9438 39.709 99.9438Z" opacity=".48"/><path stroke="#3D3C40" stroke-opacity=".16" stroke-width=".547" d="M101.491 34.6099H12.3739C10.1093 34.6099 8.27344 36.4457 8.27344 38.7103V103.224C8.27344 105.489 10.1093 107.325 12.3739 107.325H101.491C103.755 107.325 105.591 105.489 105.591 103.224V38.7103C105.591 36.4457 103.755 34.6099 101.491 34.6099Z"/><path fill="#145DBF" d="M136.769 26.0576C138.52 26.0576 139.996 26.6618 141.198 27.8705C142.399 29.0791 143 30.5647 143 32.3273V60.6547C143 62.4173 142.374 63.9029 141.123 65.1115C139.921 66.3705 138.47 67 136.769 67H99.2312C97.5295 67 96.0531 66.3705 94.8018 65.1115C93.6006 63.9029 93 62.4173 93 60.6547V32.3273C93 30.5647 93.6006 29.0791 94.8018 27.8705C96.0531 26.6618 97.5295 26.0576 99.2312 26.0576H102.384V19.7878C102.384 16.8669 103.06 14.223 104.411 11.8561C105.813 9.43885 107.69 7.52518 110.042 6.11511C112.444 4.70504 115.097 4 118 4C120.903 4 123.53 4.70504 125.883 6.11511C128.285 7.52518 130.162 9.43885 131.513 11.8561C132.915 14.223 133.615 16.8669 133.615 19.7878V26.0576H136.769ZM118 10.3453C116.248 10.3453 114.647 10.7733 113.195 11.6295C111.794 12.4352 110.668 13.5684 109.817 15.0288C109.016 16.4388 108.616 18.0252 108.616 19.7878V26.0576H127.384V19.7878C127.384 18.0252 126.959 16.4388 126.108 15.0288C125.307 13.5684 124.181 12.4352 122.73 11.6295C121.328 10.7733 119.752 10.3453 118 10.3453Z"/><path stroke="#fff" stroke-linecap="round" stroke-linejoin="round" stroke-width="3.5" d="M108.105 47.9344L113.486 53.3078L126.956 39.8611"/></g><defs><filter id="filter0_d" width="141.561" height="110.159" x="4.72" y="2.907" color-interpolation-filters="sRGB" filterUnits="userSpaceOnUse"><feFlood flood-opacity="0" result="BackgroundImageFix"/><feColorMatrix in="SourceAlpha" type="matrix" values="0 0 0 0 0 0 0 0 0 0 0 0 0 0 0 0 0 0 127 0"/><feOffset dy="2.187"/><feGaussianBlur stdDeviation="1.64"/><feColorMatrix type="matrix" values="0 0 0 0 0 0 0 0 0 0 0 0 0 0 0 0 0 0 0.12 0"/><feBlend in2="BackgroundImageFix" mode="normal" result="effect1_dropShadow"/><feBlend in="SourceGraphic" in2="effect1_dropShadow" mode="normal" result="shape"/></filter></defs></svg>